<?xml version="1.0" standalone="no"?>
<!DOCTYPE svg PUBLIC "-//W3C//DTD SVG 20010904//EN"
 "http://www.w3.org/TR/2001/REC-SVG-20010904/DTD/svg10.dtd">
<svg version="1.0" xmlns="http://www.w3.org/2000/svg"
 width="225.000000pt" height="225.000000pt" viewBox="0 0 225.000000 225.000000"
 preserveAspectRatio="xMidYMid meet">
<metadata>
Created by potrace 1.16, written by Peter Selinger 2001-2019
</metadata>
<g transform="translate(0.000000,225.000000) scale(0.100000,-0.100000)"
fill="#000000" stroke="none">
<path d="M1090 2065 c-194 -43 -365 -139 -498 -279 -87 -92 -123 -145 -177
-259 -47 -101 -80 -222 -90 -334 l-7 -73 -154 -2 -154 -3 207 -207 208 -208
215 210 215 209 -159 0 -159 1 6 81 c7 93 49 222 98 306 46 78 189 219 269
266 107 62 206 89 346 95 147 5 244 -15 374 -80 69 -34 103 -61 181 -138 79
-78 103 -110 137 -180 58 -118 82 -219 82 -348 0 -131 -18 -208 -77 -332 -40
-82 -59 -107 -142 -191 -79 -79 -111 -103 -181 -137 -117 -58 -219 -82 -345
-82 -172 0 -335 57 -467 163 l-61 49 -75 -75 -75 -75 77 -60 c196 -156 396
-220 653 -209 253 10 461 104 639 288 202 209 296 479 265 763 -43 394 -305
707 -688 822 -75 23 -111 27 -243 30 -110 3 -174 -1 -220 -11z"/>
<path d="M1182 1283 l3 -266 200 -119 c110 -65 212 -125 227 -133 27 -15 27
-14 63 46 21 33 35 63 31 66 -3 3 -85 54 -183 112 l-178 107 -3 227 -2 227
-80 0 -80 0 2 -267z"/>
</g>
</svg>
