<?xml version="1.0" standalone="no"?>
<!DOCTYPE svg PUBLIC "-//W3C//DTD SVG 20010904//EN"
 "http://www.w3.org/TR/2001/REC-SVG-20010904/DTD/svg10.dtd">
<svg version="1.0" xmlns="http://www.w3.org/2000/svg"
 width="512.000000pt" height="512.000000pt" viewBox="0 0 512.000000 512.000000"
 preserveAspectRatio="xMidYMid meet">
<metadata>
Created by potrace 1.16, written by Peter Selinger 2001-2019
</metadata>
<g transform="translate(0.000000,512.000000) scale(0.100000,-0.100000)"
fill="#000000" stroke="none">
<path d="M1608 5101 c-145 -47 -269 -174 -312 -320 -11 -37 -16 -95 -16 -178
l0 -123 -285 0 c-262 0 -291 -2 -347 -21 -155 -52 -272 -177 -314 -334 -10
-35 -14 -120 -14 -282 0 -211 2 -237 21 -288 39 -105 162 -195 264 -195 l35 0
0 -1411 c0 -1561 -4 -1462 65 -1599 65 -129 163 -227 290 -288 133 -66 43 -62
1565 -62 1546 0 1434 -5 1585 73 141 73 262 219 316 382 11 32 15 315 19 1470
l5 1430 53 7 c107 16 204 94 241 194 19 50 21 77 21 288 0 185 -3 244 -16 287
-48 161 -157 276 -312 328 -56 19 -85 21 -347 21 l-285 0 0 124 c0 94 -5 139
-19 185 -46 147 -172 272 -320 315 -48 14 -161 16 -945 15 -836 0 -895 -1
-948 -18z m1832 -334 c56 -37 73 -76 78 -188 l5 -99 -963 0 -963 0 5 99 c5
112 22 151 78 188 l33 23 847 0 847 0 33 -23z m960 -640 c67 -44 75 -71 78
-269 l4 -178 -1922 0 -1922 0 4 178 c3 198 11 225 78 269 l33 23 1807 0 1807
0 33 -23z m-242 -2164 l-3 -1388 -26 -55 c-37 -80 -81 -125 -157 -162 l-67
-33 -1345 0 -1345 0 -67 33 c-76 37 -120 82 -157 162 l-26 55 -3 1388 -3 1387
1601 0 1601 0 -3 -1387z"/>
<path d="M1352 3020 c-18 -11 -41 -34 -52 -52 -20 -32 -20 -53 -20 -1129 l0
-1096 23 -33 c12 -19 38 -43 57 -54 32 -19 51 -21 240 -21 189 0 208 2 240 21
19 11 45 35 57 54 l23 33 0 1096 c0 1076 0 1097 -20 1129 -41 67 -60 72 -300
72 -197 0 -218 -2 -248 -20z m408 -1185 l0 -1035 -160 0 -160 0 0 1035 0 1035
160 0 160 0 0 -1035z"/>
<path d="M2312 3020 c-18 -11 -41 -34 -52 -52 -20 -32 -20 -53 -20 -1129 l0
-1096 23 -33 c12 -19 38 -43 57 -54 32 -19 51 -21 240 -21 189 0 208 2 240 21
19 11 45 35 57 54 l23 33 0 1096 c0 1076 0 1097 -20 1129 -41 67 -60 72 -300
72 -197 0 -218 -2 -248 -20z m408 -1185 l0 -1035 -160 0 -160 0 0 1035 0 1035
160 0 160 0 0 -1035z"/>
<path d="M3272 3020 c-18 -11 -41 -34 -52 -52 -20 -32 -20 -53 -20 -1129 l0
-1096 23 -33 c12 -19 38 -43 57 -54 32 -19 51 -21 240 -21 189 0 208 2 240 21
19 11 45 35 57 54 l23 33 0 1096 c0 1076 0 1097 -20 1129 -41 67 -60 72 -300
72 -197 0 -218 -2 -248 -20z m408 -1185 l0 -1035 -160 0 -160 0 0 1035 0 1035
160 0 160 0 0 -1035z"/>
</g>
</svg>
